# xmcd
#
# Track frame offsets: 
#        150
#        21495
#        34976
#        64440
#        82657
#        109553
#        130057
#        141250
#        167369
#        183822
#        201508
#        216611
#
# Disc length: 3119 seconds
#
# Revision: 0
# Processed by: cddbd v1.5.2PL0 Copyright (c) Steve Scherf et al.
# Submitted via: ExactAudioCopy v1.0b3
#
DISCID=ad0c2d0c
DTITLE=HowellDevine - Jumps, Boogies and Wobbles
DYEAR=2013
DGENRE=Blues
TTITLE0=Rollin' And Tumblin'
TTITLE1=Guitar Rag
TTITLE2=Harmonica Wobble #2
TTITLE3=Shotgun Blues
TTITLE4=HowellDevine Boogie Woogie
TTITLE5=Help Me
TTITLE6=Soft Steel Piston
TTITLE7=Spoonful
TTITLE8=Mellow Down Easy
TTITLE9=KC Blues
TTITLE10=Mighty Long Time
TTITLE11=Write Me A Few Of Your Lines
EXTD=
EXTT0=
EXTT1=
EXTT2=
EXTT3=
EXTT4=
EXTT5=
EXTT6=
EXTT7=
EXTT8=
EXTT9=
EXTT10=
EXTT11=
PLAYORDER=
